<mxfile modified="2023-07-14T08:16:06.049Z" host="app.diagrams.net" agent="Mozilla/5.0 (Windows NT 10.0; Win64; x64) AppleWebKit/537.36 (KHTML, like Gecko) Chrome/114.0.0.0 Safari/537.36" etag="QUDeLze9MnmtFnivyz-r" version="21.6.2" type="github">
  <diagram id="Ht1M8jgEwFfnCIfOTk4-" name="Page-1">
    <mxGraphModel dx="1434" dy="830" grid="1" gridSize="10" guides="1" tooltips="1" connect="1" arrows="1" fold="1" page="1" pageScale="1" pageWidth="1169" pageHeight="827" math="0" shadow="0">
      <root>
        <mxCell id="0" />
        <mxCell id="1" parent="0" />
        <mxCell id="vFEcZ6SvcRoYeX7Qv52t-5" value="&lt;b&gt;&lt;font color=&quot;#0000ff&quot;&gt;BouffaloLab DB&lt;/font&gt;&lt;/b&gt;" style="points=[[0,0,0],[0.25,0,0],[0.5,0,0],[0.75,0,0],[1,0,0],[0,1,0],[0.25,1,0],[0.5,1,0],[0.75,1,0],[1,1,0],[0,0.25,0],[0,0.5,0],[0,0.75,0],[1,0.25,0],[1,0.5,0],[1,0.75,0]];outlineConnect=0;fontColor=#232F3E;gradientColor=#4D72F3;gradientDirection=north;fillColor=#3334B9;strokeColor=#ffffff;dashed=0;verticalLabelPosition=bottom;verticalAlign=top;align=center;html=1;fontSize=12;fontStyle=0;aspect=fixed;shape=mxgraph.aws4.resourceIcon;resIcon=mxgraph.aws4.documentdb_with_mongodb_compatibility;rounded=1;" parent="1" vertex="1">
          <mxGeometry x="490" y="40" width="78" height="78" as="geometry" />
        </mxCell>
        <mxCell id="vFEcZ6SvcRoYeX7Qv52t-6" value="BouffaloLab Matter Cloud" style="points=[[0,0,0],[0.25,0,0],[0.5,0,0],[0.75,0,0],[1,0,0],[0,1,0],[0.25,1,0],[0.5,1,0],[0.75,1,0],[1,1,0],[0,0.25,0],[0,0.5,0],[0,0.75,0],[1,0.25,0],[1,0.5,0],[1,0.75,0]];outlineConnect=0;fontColor=#0000FF;gradientColor=#4D72F3;gradientDirection=north;fillColor=#3334B9;strokeColor=#ffffff;dashed=0;verticalLabelPosition=bottom;verticalAlign=top;align=center;html=1;fontSize=12;fontStyle=1;aspect=fixed;shape=mxgraph.aws4.resourceIcon;resIcon=mxgraph.aws4.cloud_development_kit;rounded=1;" parent="1" vertex="1">
          <mxGeometry x="280" y="240" width="78" height="78" as="geometry" />
        </mxCell>
        <mxCell id="vFEcZ6SvcRoYeX7Qv52t-15" value="User" style="outlineConnect=0;fontColor=#232F3E;gradientColor=none;fillColor=#232F3D;strokeColor=none;dashed=0;verticalLabelPosition=bottom;verticalAlign=top;align=center;html=1;fontSize=12;fontStyle=1;aspect=fixed;pointerEvents=1;shape=mxgraph.aws4.users;" parent="1" vertex="1">
          <mxGeometry x="490" y="440" width="78" height="78" as="geometry" />
        </mxCell>
        <mxCell id="vFEcZ6SvcRoYeX7Qv52t-16" value="&lt;font color=&quot;#0000ff&quot;&gt;&lt;b&gt;Mass Production Tool&lt;/b&gt;&lt;/font&gt;" style="points=[[0,0,0],[0.25,0,0],[0.5,0,0],[0.75,0,0],[1,0,0],[0,1,0],[0.25,1,0],[0.5,1,0],[0.75,1,0],[1,1,0],[0,0.25,0],[0,0.5,0],[0,0.75,0],[1,0.25,0],[1,0.5,0],[1,0.75,0]];outlineConnect=0;fontColor=#232F3E;gradientColor=#4AB29A;gradientDirection=north;fillColor=#116D5B;strokeColor=#ffffff;dashed=0;verticalLabelPosition=bottom;verticalAlign=top;align=center;html=1;fontSize=12;fontStyle=0;aspect=fixed;shape=mxgraph.aws4.resourceIcon;resIcon=mxgraph.aws4.augmented_ai;" parent="1" vertex="1">
          <mxGeometry x="700" y="240" width="78" height="78" as="geometry" />
        </mxCell>
        <mxCell id="vFEcZ6SvcRoYeX7Qv52t-18" value="&lt;font style=&quot;font-size: 11px;&quot;&gt;Factory Matter Data&lt;/font&gt;" style="outlineConnect=0;fontColor=#0000FF;gradientColor=none;fillColor=#BF0816;strokeColor=none;dashed=0;verticalLabelPosition=bottom;verticalAlign=top;align=center;html=1;fontSize=12;fontStyle=1;aspect=fixed;pointerEvents=1;shape=mxgraph.aws4.encrypted_data;" parent="1" vertex="1">
          <mxGeometry x="660" y="90" width="32" height="40.26" as="geometry" />
        </mxCell>
        <mxCell id="vFEcZ6SvcRoYeX7Qv52t-27" value="&#xa;&lt;span style=&quot;font-family: Helvetica; font-size: 12px; font-style: normal; font-variant-ligatures: normal; font-variant-caps: normal; letter-spacing: normal; orphans: 2; text-align: center; text-indent: 0px; text-transform: none; widows: 2; word-spacing: 0px; -webkit-text-stroke-width: 0px; text-decoration-thickness: initial; text-decoration-style: initial; text-decoration-color: initial; float: none; display: inline !important;&quot;&gt;Issue Factory Matter Data&amp;nbsp;&lt;/span&gt;&#xa;&#xa;" style="shape=flexArrow;endArrow=classic;html=1;rounded=0;strokeColor=#82b366;fontColor=#0000FF;fillColor=#0000FF;exitX=1;exitY=0.5;exitDx=0;exitDy=0;exitPerimeter=0;entryX=0.5;entryY=0;entryDx=0;entryDy=0;entryPerimeter=0;fontStyle=1;labelBackgroundColor=none;" parent="1" source="vFEcZ6SvcRoYeX7Qv52t-5" target="vFEcZ6SvcRoYeX7Qv52t-16" edge="1">
          <mxGeometry x="-0.5067" y="19" width="50" height="50" relative="1" as="geometry">
            <mxPoint x="670" y="310" as="sourcePoint" />
            <mxPoint x="750" y="400" as="targetPoint" />
            <Array as="points">
              <mxPoint x="740" y="80" />
            </Array>
            <mxPoint as="offset" />
          </mxGeometry>
        </mxCell>
        <mxCell id="vFEcZ6SvcRoYeX7Qv52t-29" value="" style="shape=flexArrow;endArrow=classic;html=1;rounded=0;strokeColor=#82b366;fontColor=#393C56;fillColor=#FF0000;edgeStyle=orthogonalEdgeStyle;" parent="1" edge="1">
          <mxGeometry width="50" height="50" relative="1" as="geometry">
            <mxPoint x="490" y="479" as="sourcePoint" />
            <mxPoint x="320" y="332" as="targetPoint" />
            <Array as="points">
              <mxPoint x="321" y="479" />
            </Array>
          </mxGeometry>
        </mxCell>
        <mxCell id="vFEcZ6SvcRoYeX7Qv52t-30" value="Submit User Information" style="edgeLabel;html=1;align=center;verticalAlign=middle;resizable=0;points=[];fontColor=#FF0000;fontStyle=1;fontSize=12;rotation=0;" parent="vFEcZ6SvcRoYeX7Qv52t-29" vertex="1" connectable="0">
          <mxGeometry x="0.6391" y="-3" relative="1" as="geometry">
            <mxPoint x="77" y="111" as="offset" />
          </mxGeometry>
        </mxCell>
        <mxCell id="vFEcZ6SvcRoYeX7Qv52t-34" value="&lt;span style=&quot;font-size: 12px;&quot;&gt;Genrate Matter Factory Data&amp;nbsp;&amp;nbsp;&lt;/span&gt;" style="shape=flexArrow;endArrow=classic;html=1;rounded=0;strokeColor=#d79b00;fontColor=#0000FF;fillColor=#0000FF;entryX=0;entryY=0.5;entryDx=0;entryDy=0;entryPerimeter=0;exitX=0.5;exitY=0;exitDx=0;exitDy=0;exitPerimeter=0;fontSize=12;fontStyle=1;" parent="1" source="vFEcZ6SvcRoYeX7Qv52t-6" target="vFEcZ6SvcRoYeX7Qv52t-5" edge="1">
          <mxGeometry x="0.4545" y="20" width="50" height="50" relative="1" as="geometry">
            <mxPoint x="700" y="480" as="sourcePoint" />
            <mxPoint x="750" y="430" as="targetPoint" />
            <Array as="points">
              <mxPoint x="320" y="80" />
            </Array>
            <mxPoint as="offset" />
          </mxGeometry>
        </mxCell>
        <mxCell id="vFEcZ6SvcRoYeX7Qv52t-36" value="Request Factory Matter Data" style="shape=flexArrow;endArrow=classic;html=1;rounded=0;strokeColor=#E07A5F;fontColor=#009999;fillColor=#009999;exitX=0;exitY=0.5;exitDx=0;exitDy=0;exitPerimeter=0;fontSize=12;fontStyle=1;labelBorderColor=none;" parent="1" edge="1">
          <mxGeometry x="-0.4368" y="20" width="50" height="50" relative="1" as="geometry">
            <mxPoint x="700" y="279" as="sourcePoint" />
            <mxPoint x="520" y="140" as="targetPoint" />
            <Array as="points">
              <mxPoint x="520" y="280" />
            </Array>
            <mxPoint y="1" as="offset" />
          </mxGeometry>
        </mxCell>
        <mxCell id="vFEcZ6SvcRoYeX7Qv52t-38" value="&lt;b&gt;&lt;font color=&quot;#ff0000&quot;&gt;User Login&lt;/font&gt;&lt;/b&gt;" style="shape=flexArrow;endArrow=classic;html=1;rounded=0;fillColor=#FF0000;" parent="1" edge="1">
          <mxGeometry x="-0.506" y="20" width="50" height="50" relative="1" as="geometry">
            <mxPoint x="568" y="480" as="sourcePoint" />
            <mxPoint x="740" y="340" as="targetPoint" />
            <Array as="points">
              <mxPoint x="740" y="480" />
            </Array>
            <mxPoint as="offset" />
          </mxGeometry>
        </mxCell>
      </root>
    </mxGraphModel>
  </diagram>
</mxfile>
